<svg height="512pt" viewBox="-115 0 512 512.0011" width="512pt" xmlns="http://www.w3.org/2000/svg"><path d="m128.664062 2.675781c-1.171874-3.933593-6.914062-3.386719-7.320312.699219-4.195312 42.28125-4.296875 90.671875.582031 141.796875 1.179688 12.34375 4.617188 35.863281 6.285157 47.742187l26.707031-50.890624c-4.882813-51.125-14.132813-98.625-26.253907-139.347657zm0 0" fill="#bee891"/><path d="m153.785156 221.175781c3.601563-19.878906 7.558594-46.757812 9.746094-68.148437 5.226562-51.09375 5.457031-99.480469 1.546875-141.792969-.375-4.085937-6.117187-4.671875-7.3125-.746094-12.398437 40.640625-21.972656 88.074219-27.199219 139.164063-1.261718 12.339844-2.496094 36.078125-3.1875 48.050781zm0 0" fill="#cdf5a0"/><path d="m164.675781 499.722656-8.140625-16.28125c-2.046875-4.09375-7.023437-5.75-11.117187-3.707031h-9.15625c-4.101563-2.042969-9.0625-.386719-11.117188 3.707031l-8.140625 16.28125c-1.980468 3.964844-.726562 8.945313 3.117188 11.164063 1.316406.757812 2.738281 1.113281 4.144531 1.113281 3.039063 0 5.960937-1.675781 7.417969-4.578125l7.328125-14.683594c.757812-1.519531 2.929687-1.519531 3.6875.003907l7.300781 14.679687c1.457031 2.902344 4.378906 4.578125 7.417969 4.578125 1.40625 0 2.828125-.355469 4.148437-1.113281 3.835938-2.21875 5.09375-7.199219 3.109375-11.164063zm0 0" fill="#c48d66"/><path d="m165.355469 232.214844c-4.582031-.683594-7.875-4.777344-7.175781-9.355469-13.527344-29.957031-30.820313-38.8125-41.25-41.347656-3.691407-.898438-6.589844 3.152343-4.777344 6.488281 7.425781 13.671875 10.300781 26.816406 11.414062 34.949219.625 4.558593-2.640625 8.578125-7.1875 9.261719-66.113281 9.878906-116.378906 59.019531-116.378906 118.238281 0 49.503906 35.136719 91.9375 85.285156 110.304687 9.910156 3.628906 18.050782 10.308594 23.449219 18.753906 2.933594 4.59375 7.753906 7.636719 13.207031 7.636719h37.796875c5.453125 0 10.273438-3.042969 13.210938-7.636719 5.394531-8.445312 13.535156-15.125 23.445312-18.753906 50.148438-18.367187 85.285157-60.800781 85.285157-110.304687 0-59.203125-50.242188-108.332031-116.324219-118.234375zm0 0" fill="#ffaa5f"/><path d="m165.355469 232.214844c-4.582031-.683594-7.875-4.777344-7.175781-9.355469-5.40625-11.96875-11.410157-20.527344-17.339844-26.703125v290.988281h18.898437c5.453125 0 10.273438-3.042969 13.210938-7.636719 5.394531-8.445312 13.535156-15.125 23.445312-18.753906 50.148438-18.367187 85.285157-60.800781 85.285157-110.304687 0-59.203125-50.242188-108.332031-116.324219-118.234375zm0 0" fill="#ffc369"/><path d="m169.316406 225.878906c-.773437-2.722656-.625-5.601562.359375-8.257812 2.078125-5.597656 5.269531-11.589844 10.160157-16.476563 3.238281-3.234375 3.238281-8.480469 0-11.714843-3.234376-3.238282-8.476563-3.238282-11.714844 0-7.308594 7.308593-11.816406 16.003906-14.613282 24.183593-12.660156-22.605469-27.351562-29.871093-36.613281-32.109375-3.679687-.890625-6.625 3.035156-4.816406 6.359375 7.496094 13.75 10.382813 26.980469 11.496094 35.132813.617187 4.53125-2.617188 8.527344-7.140625 9.203125-66.136719 9.863281-116.433594 59.011719-116.433594 118.25 0 49.503906 35.136719 91.9375 85.285156 110.304687 9.910156 3.628906 18.050782 10.308594 23.449219 18.75 2.933594 4.597656 7.753906 7.640625 13.207031 7.640625h37.796875c5.453125 0 10.273438-3.042969 13.210938-7.640625 5.394531-8.441406 13.535156-15.121094 23.445312-18.75 50.148438-18.367187 85.285157-60.800781 85.285157-110.304687 0-55.023438-43.441407-101.238281-102.621094-115.445313-4.660156-1.121094-8.4375-4.511718-9.742188-9.125zm0 0" fill="#ffaa5f"/><path d="m119.292969 182.171875c-.84375-.265625-1.652344-.488281-2.425781-.675781-3.667969-.882813-6.6875 2.898437-4.875 6.210937 7.574218 13.832031 10.472656 27.15625 11.585937 35.339844.613281 4.503906-2.605469 8.476563-7.101563 9.148437-66.160156 9.847657-116.476562 59.003907-116.476562 118.253907 0 49.503906 35.136719 91.9375 85.285156 110.304687 3.671875 1.34375 7 3.226563 10.132813 5.34375l45.421875-15.273437v-238.148438c0-13.703125-8.476563-26.390625-21.546875-30.503906zm0 0" fill="#ff8c5a"/><path d="m140.839844 228.378906v251.386719c54.90625 0 99.414062-56.273437 99.414062-125.691406s-44.507812-125.695313-99.414062-125.695313zm0 0" fill="#ffd164"/><path d="m140.839844 228.378906v251.386719c-54.90625 0-99.417969-56.273437-99.417969-125.691406s44.511719-125.695313 99.417969-125.695313zm0 0" fill="#ffaa5f"/><path d="m182.261719 354.074219c0-69.417969-18.542969-125.695313-41.421875-125.695313s-41.421875 56.277344-41.421875 125.695313 18.542969 125.695312 41.421875 125.695312 41.421875-56.277343 41.421875-125.695312zm0 0" fill="#ffc369"/></svg>