<svg id="Capa_1" enable-background="new 0 0 512 512" height="512" viewBox="0 0 512 512" width="512" xmlns="http://www.w3.org/2000/svg"><g><path d="m295.56 105.37v57.27h-30v-57.27c0-41.56-33.81-75.37-75.37-75.37v-30c58.19-.004 105.508 47.762 105.37 105.37z" fill="#673351"/><path d="m487.44 238.87c0 88.04-71.32 273.13-142.88 273.13-32 0-64-32-64-32s-32 32-64 32c-71.55 0-142.87-185.09-142.87-273.13s64-128 128-128c16.57 0 31.56 4.27 43.91 9.69 11.14 4.89 23.06 7.34 34.96 7.34 11.92 0 23.82-2.45 34.97-7.34 12.35-5.42 27.34-9.69 43.91-9.69 64 0 128 39.96 128 128z" fill="#f84c1b"/><path d="m487.44 238.87c0 88.04-71.32 273.13-142.88 273.13-32 0-64-32-64-32v-352.1c11.92 0 23.82-2.45 34.97-7.34 12.35-5.42 27.34-9.69 43.91-9.69 64 0 128 39.96 128 128z" fill="#d01717"/><path d="m231.44 238.87c0 81.93-61.76 247.9-128 270.54-4.95 1.7-9.91 2.59-14.88 2.59-32 0-64-32-64-32v-352.1c11.91 0 23.82-2.45 34.97-7.34 12.35-5.42 27.34-9.69 43.91-9.69 64 0 128 39.96 128 128z" fill="#ffe891"/><path d="m231.44 238.87c0 81.93-61.76 247.9-128 270.54v-398.54c64 0 128 39.96 128 128z" fill="#ffd077"/><path d="m408.52 32c0 53.02-42.98 96-96 96h-32c0-53.02 42.98-96 96-96z" fill="#81c953"/><path d="m408.52 32c0 53.02-42.98 96-96 96h-31.84l-.12-.1z" fill="#4dba5a"/><path d="m130.62 301.51c-7.73 7.73-17.57 12.29-27.18 14.95-18.53 5.13-36.2 3.17-36.2 3.17s-4.5-40.74 18.13-63.37c5.09-5.09 11.46-8.11 18.07-9.05 9.63-1.38 19.77 1.64 27.18 9.05 12.5 12.5 12.5 32.76 0 45.25z" fill="#814c59"/><path d="m130.62 301.51c-7.73 7.73-17.57 12.29-27.18 14.95v-69.25c9.63-1.38 19.77 1.64 27.18 9.05 12.5 12.5 12.5 32.76 0 45.25z" fill="#673351"/></g></svg>