<svg height="464pt" viewBox="0 0 464.12888 464" width="464pt" xmlns="http://www.w3.org/2000/svg"><path d="m176.128906 199.527344c.035156-15.851563 5.335938-31.242188 15.070313-43.75 7.191406-8.695313 9.214843-20.558594 5.320312-31.144532-6.175781-15.375-5.226562-32.695312 2.601563-47.300781 7.824218-14.601562 21.71875-24.988281 37.941406-28.355469 2.902344-.589843 5.84375-.957031 8.800781-1.097656 10.855469-.890625 20.402344-7.519531 25.03125-17.375 9.628907-18.746094 28.96875-30.4960935 50.042969-30.410156 21.074219.085938 40.316406 11.996094 49.789062 30.816406 4.546876 9.910156 14.050782 16.625 24.90625 17.601563 2.9375.164062 5.863282.554687 8.742188 1.167969 16.203125 3.492187 30.023438 13.992187 37.734375 28.664062s8.515625 32.011719 2.203125 47.335938c-3.984375 10.5625-2.046875 22.445312 5.078125 31.199218 19.816406 25.933594 19.632813 61.972656-.445313 87.703125-6.597656 8.710938-8.210937 20.214844-4.265624 30.402344 2.886718 8.039063 3.753906 16.667969 2.519531 25.121094-2.460938 15.152343-11.269531 28.539062-24.214844 36.796875l-41.953125 22.632812c-29.511719 15.917969-52.542969 41.636719-65.121094 72.71875l-12.863281 31.785156-48-.191406.328125-80-39.214844-47.742187c-12.882812-8.359375-21.582031-21.816407-23.921875-36.992188-1.167969-8.492187-.230469-17.136719 2.738281-25.175781 4.019532-10.144531 2.507813-21.644531-4-30.402344-9.714843-12.605468-14.941406-28.09375-14.847656-44.007812zm0 0" fill="#5f9548"/><g fill="#68a34f"><path d="m324.535156 129.121094 72.171875-39.695313 7.707031 14.011719-72.171874 39.699219zm0 0"/><path d="m323.738281 225.371094 88.214844-55.65625 8.535156 13.53125-88.210937 55.660156zm0 0"/><path d="m323.351562 321.375 88.214844-55.65625 8.535156 13.53125-88.210937 55.660156zm0 0"/></g><path d="m288 200.105469c.019531-15.851563-5.222656-31.261719-14.914062-43.808594-7.167969-8.730469-9.148438-20.617187-5.199219-31.203125 6.226562-15.347656 5.335937-32.664062-2.429688-47.292969-7.765625-14.632812-21.609375-25.074219-37.808593-28.519531-2.886719-.601562-5.816407-.984375-8.761719-1.136719-10.851563-.929687-20.382813-7.59375-24.976563-17.472656-9.550781-18.78125-28.839844-30.609375-49.910156-30.609375s-40.359375 11.828125-49.914062 30.609375c-4.589844 9.878906-14.121094 16.542969-24.972657 17.472656-2.945312.152344-5.871093.535157-8.753906 1.136719-16.203125 3.445312-30.046875 13.886719-37.8125 28.515625s-8.660156 31.949219-2.433594 47.296875c3.949219 10.585938 1.96875 22.472656-5.203125 31.203125-19.917968 25.851563-19.878906 61.890625.097656 87.703125 6.550782 8.734375 8.117188 20.234375 4.136719 30.398438-2.929687 8.050781-3.835937 16.703124-2.632812 25.183593 2.398437 15.167969 11.15625 28.59375 24.070312 36.898438l41.859375 22.800781c29.4375 16.042969 52.351563 41.851562 64.796875 72.984375l12.761719 31.839844h48v-80l39.414062-47.617188c12.917969-8.304687 21.675782-21.726562 24.074219-36.898437 1.203125-8.480469.296875-17.128906-2.632812-25.183594-3.980469-10.164062-2.414063-21.664062 4.136719-30.398438 9.75-12.558593 15.03125-28.007812 15.007812-43.902343zm0 0" fill="#5f9548"/><path d="m60.117188 103.101562 7.765624-13.980468 72 40-7.765624 13.980468zm0 0" fill="#68a34f"/><path d="m43.707031 182.851562 8.589844-13.5 87.996094 56-8.589844 13.5zm0 0" fill="#68a34f"/><path d="m43.707031 278.855469 8.589844-13.5 87.996094 56-8.589844 13.5zm0 0" fill="#68a34f"/><path d="m376 200.105469c.019531-15.851563-5.222656-31.261719-14.914062-43.808594-7.167969-8.730469-9.148438-20.617187-5.199219-31.203125 6.226562-15.347656 5.335937-32.664062-2.429688-47.292969-7.765625-14.632812-21.609375-25.074219-37.808593-28.519531-2.902344-.605469-5.84375-.984375-8.800782-1.136719-10.855468-.929687-20.382812-7.59375-24.976562-17.472656-9.554688-18.78125-28.839844-30.609375-49.910156-30.609375-21.070313 0-40.359376 11.828125-49.914063 30.609375-4.59375 9.878906-14.121094 16.542969-24.976563 17.472656-2.941406.152344-5.867187.535157-8.75 1.136719-16.203124 3.445312-30.046874 13.886719-37.8125 28.515625-7.769531 14.628906-8.660156 31.949219-2.4375 47.296875 3.953126 10.585938 1.972657 22.472656-5.199218 31.203125-19.796875 25.699219-19.890625 61.484375-.222656 87.285156 6.675781 8.964844 8.3125 20.714844 4.335937 31.160157-2.839844 7.957031-3.699219 16.484374-2.511719 24.847656 2.394532 15.167968 11.152344 28.589844 24.0625 36.898437l4.855469 3.238281c41.605469 27.714844 66.601563 74.390626 66.609375 124.378907h64c0-49.984375 24.980469-96.65625 66.566406-124.378907l4.859375-3.238281c12.910157-8.308593 21.664063-21.730469 24.0625-36.898437 1.1875-8.363282.324219-16.890625-2.511719-24.847656-3.976562-10.445313-2.34375-22.195313 4.335938-31.160157 9.546875-12.480469 14.710938-27.761719 14.6875-43.476562zm0 0" fill="#7eb457"/><path d="m376 200.105469c.019531-15.851563-5.222656-31.261719-14.914062-43.808594-7.167969-8.730469-9.148438-20.617187-5.199219-31.203125 9.382812-23.0625 2.375-49.554688-17.191407-64.957031-28.800781 166.398437-112.800781 257.78125-176.535156 304.574219 24.371094 27.371093 37.839844 62.742187 37.839844 99.394531h64c0-49.980469 24.976562-96.652344 66.558594-124.378907l4.867187-3.238281c12.910157-8.308593 21.664063-21.730469 24.0625-36.898437 1.1875-8.363282.324219-16.890625-2.511719-24.847656-3.976562-10.445313-2.34375-22.195313 4.335938-31.160157 9.546875-12.480469 14.710938-27.761719 14.6875-43.476562zm0 0" fill="#77ad50"/><path d="m306.648438 282.160156-66.648438 59.984375v-74.480469l77.351562-69.617187-10.703124-11.886719-66.648438 59.984375v-74.417969l61.265625-53.605468-10.53125-12.035156-50.734375 44.394531v-102.375h-16v102.375l-50.734375-44.394531-10.53125 12.035156 61.265625 53.605468v74.417969l-66.648438-59.984375-10.703124 11.886719 77.351562 69.617187v74.480469l-66.648438-59.984375-10.703124 11.886719 77.351562 69.617187v100.441407h16v-100.441407l77.351562-69.617187zm0 0" fill="#88c25e"/></svg>