<?xml version="1.0" encoding="iso-8859-1"?>
<!-- Generator: Adobe Illustrator 19.0.0, SVG Export Plug-In . SVG Version: 6.00 Build 0)  -->
<svg version="1.1" id="Capa_1" xmlns="http://www.w3.org/2000/svg" xmlns:xlink="http://www.w3.org/1999/xlink" x="0px" y="0px"
	 viewBox="0 0 483.296 483.296" style="enable-background:new 0 0 483.296 483.296;" xml:space="preserve">
<path style="fill:#008100;" d="M112,1.648c-17.673,0-32,14.327-32,32v4.8c-15.059-13.224-37.987-11.736-51.211,3.323
	C16.711,55.525,16.767,76.12,28.92,89.808c-17.585,1.764-30.41,17.449-28.646,35.034C1.91,141.153,15.607,153.59,32,153.648h8v40
	h104v-160C144,15.975,129.673,1.648,112,1.648z"/>
<path style="fill:#33BC00;" d="M291.2,113.776l2.472-2.472c16.393-16.367,16.415-42.924,0.048-59.318
	c-14.384-14.407-37.036-16.405-53.72-4.738v-5.6c0-22.091-17.909-40-40-40s-40,17.909-40,40v5.6
	c-19.004-13.246-45.148-8.578-58.394,10.427c-11.616,16.665-9.619,39.259,4.738,53.629l2.472,2.472
	c-22.021,1.766-38.44,21.049-36.675,43.069c1.666,20.78,19.012,36.795,39.859,36.803c4.418,0,8,3.582,8,8v56h160v-56
	c0-4.418,3.582-8,8-8c22.091,0.001,40.001-17.906,40.003-39.997C328.004,132.798,311.986,115.443,291.2,113.776L291.2,113.776z"/>
<g>
	<path style="fill:#008100;" d="M400.001,65.642l47.999-47.999l24.002,24.002l-47.999,47.999L400.001,65.642z"/>
	<path style="fill:#008100;" d="M368,9.648h40v64h-40V9.648z"/>
	<path style="fill:#008100;" d="M303.974,41.644l24.002-24.002l47.999,47.999l-24.002,24.002L303.974,41.644z"/>
</g>
<path style="fill:#FF6536;" d="M388,65.648c-41.836,0.331-75.669,34.164-76,76v15.672c0.001,3.359,0.304,6.711,0.904,10.016
	l16.424,90.312h117.344l14.544-80l1.872-10.312c0.337-1.882,0.577-3.781,0.72-5.688c0.112-1.44,0.192-2.888,0.192-4.328v-15.672
	C463.952,99.694,429.954,65.696,388,65.648z"/>
<path style="fill:#FBBF00;" d="M304,169.648c-39.746,0.044-71.956,32.254-72,72v16h144v-16
	C375.956,201.902,343.746,169.692,304,169.648z"/>
<path style="fill:#DE0418;" d="M176,169.648c-39.746,0.044-71.956,32.254-72,72v16h144v-16
	C247.956,201.902,215.746,169.692,176,169.648z"/>
<path style="fill:#FBBF00;" d="M56,129.648H40c-22.08,0.026-39.974,17.92-40,40c0.053,48.579,39.421,87.947,88,88h16
	c22.08-0.026,39.974-17.92,40-40C143.947,169.069,104.579,129.701,56,129.648z"/>
<path style="fill:#6D421F;" d="M8,297.648h464v176H8V297.648z"/>
<path style="fill:#5B3514;" d="M8,249.648h464v48H8V249.648z"/>
<path d="M464.136,161.648h-0.304c0.112-1.44,0.168-2.888,0.168-4.328v-15.672c-0.036-21.301-8.996-41.613-24.704-56l44-44L448,6.336
	l-32,32V1.648h-48v44.688l-40-40l-35.312,35.312l44.08,44.08c-8.487,7.732-15.126,17.274-19.424,27.92l-1.968,5.6v0.088
	l-1.296,4.232c-6.378-5.635-14.4-9.068-22.88-9.792l2.472-2.472c16.393-16.367,16.415-42.924,0.048-59.318
	c-14.384-14.407-37.036-16.405-53.72-4.738v-5.6c0-22.091-17.909-40-40-40s-40,17.909-40,40v5.6c-4.802-3.33-10.255-5.607-16-6.68
	v-6.92c0-17.673-14.327-32-32-32s-32,14.327-32,32v4.8C64.959,25.204,42.029,26.66,28.784,41.702
	C16.665,55.466,16.72,76.109,28.912,89.808c-17.51,1.624-30.387,17.135-28.763,34.644c0.687,7.407,3.946,14.34,9.211,19.596
	c-6.028,7.17-9.342,16.233-9.36,25.6c0.029,28.699,14.065,55.577,37.6,72H0v240h480v-240h-30.4L464.136,161.648z M416,60.96l32-32
	l12.688,12.688l-34.4,34.4c-0.344-0.2-0.72-0.336-1.064-0.528c-1.704-0.96-3.472-1.784-5.24-2.608
	c-0.936-0.44-1.816-0.976-2.768-1.376l-1.2-1.2L416,60.96z M384,17.648h16v48h-16V17.648z M315.312,41.648L328,28.96l39.552,39.552
	c-2.4,0.68-4.8,1.456-7.16,2.4c-3.344,1.334-6.59,2.903-9.712,4.696c-0.312,0.176-0.656,0.288-0.96,0.464L315.312,41.648z
	 M328,141.648c0-4.03,0.405-8.051,1.208-12H408v-16h-73.048c4.411-8.248,10.667-15.366,18.28-20.8
	c20.792-14.793,48.672-14.793,69.464,0c15.811,11.234,25.233,29.405,25.304,48.8v15.672c0.001,1.446-0.077,2.891-0.232,4.328H408v16
	h36.96l-11.64,64H376c0.003-5.384-0.604-10.752-1.808-16H408v-16h-39.528c-1.04-2.096-2.184-4.12-3.4-6.08
	c-0.416-0.664-0.88-1.28-1.312-1.928c-0.848-1.272-1.696-2.544-2.624-3.752c-0.56-0.736-1.176-1.424-1.76-2.136
	c-0.872-1.056-1.752-2.112-2.688-3.12c-0.664-0.72-1.368-1.392-2.064-2.08c-0.936-0.928-1.872-1.848-2.856-2.72
	c-0.752-0.664-1.528-1.296-2.304-1.936c-1-0.8-2.016-1.6-3.056-2.4c-0.8-0.6-1.656-1.168-2.504-1.736
	c-1.067-0.715-2.16-1.4-3.28-2.056c-0.88-0.52-1.76-1.024-2.656-1.504c-1.152-0.616-2.336-1.192-3.528-1.744
	c-0.912-0.424-1.824-0.848-2.76-1.24c-0.4-0.168-0.8-0.368-1.168-0.528l-1.856-10.232c-0.433-2.354-0.652-4.742-0.656-7.136
	L328,141.648z M321.024,188.304c15.856,5.048,28.635,16.903,34.856,32.336c2.719,6.67,4.118,13.805,4.12,21.008H248
	c0.035-30.913,25.087-55.965,56-56c1.152,0,2.288,0.088,3.416,0.168l0.672,0.048C312.481,186.165,316.823,186.984,321.024,188.304
	L321.024,188.304z M136,55.704c6.884-0.017,13.489,2.719,18.344,7.6c4.957,4.953,12.991,4.95,17.944-0.008
	c2.375-2.377,3.71-5.6,3.712-8.96V41.648c0-13.255,10.745-24,24-24s24,10.745,24,24v12.688c0.004,7.007,5.688,12.685,12.696,12.68
	c3.361-0.002,6.583-1.337,8.96-3.712c10.246-10.016,26.672-9.83,36.688,0.417c9.856,10.082,9.856,26.189,0,36.271l-4.688,4.688
	c-5.713,5.709-5.716,14.969-0.007,20.681c2.744,2.746,6.468,4.288,10.351,4.287c13.255,0,24,10.745,24,24
	c-0.035,5.937-2.293,11.645-6.328,16c-0.56,0-1.112,0-1.672,0c-3.067,0.021-6.129,0.237-9.168,0.648
	c-0.84,0.104-1.672,0.248-2.504,0.384c-2.363,0.386-4.704,0.89-7.016,1.512c-0.632,0.168-1.272,0.304-1.896,0.488
	c-2.792,0.834-5.531,1.839-8.2,3.008c-0.608,0.264-1.192,0.584-1.792,0.864c-2.133,0.992-4.181,2.083-6.144,3.272
	c-0.688,0.416-1.384,0.8-2.056,1.256c-2.44,1.544-4.786,3.232-7.024,5.056l-0.136,0.12c-2.165,1.819-4.222,3.764-6.16,5.824
	c-0.56,0.584-1.088,1.184-1.6,1.784c-1.547,1.739-3.008,3.547-4.384,5.424c-0.368,0.504-0.8,0.984-1.12,1.496
	c-1.637,2.367-3.13,4.83-4.472,7.376c-0.096,0.176-0.216,0.336-0.312,0.512c-0.096-0.176-0.216-0.336-0.312-0.512
	c-1.342-2.546-2.835-5.009-4.472-7.376c-0.36-0.512-0.752-0.992-1.12-1.496c-1.376-1.883-2.837-3.691-4.384-5.424
	c-0.536-0.6-1.072-1.2-1.6-1.784c-1.938-2.06-3.995-4.005-6.16-5.824l-0.136-0.12c-2.238-1.824-4.584-3.512-7.024-5.056
	c-0.68-0.432-1.368-0.8-2.056-1.256c-1.989-1.184-4.037-2.275-6.144-3.272c-0.6-0.28-1.184-0.6-1.792-0.864
	c-2.669-1.169-5.408-2.174-8.2-3.008c-0.624-0.184-1.264-0.32-1.896-0.488c-2.312-0.622-4.653-1.126-7.016-1.512
	c-0.8-0.136-1.664-0.272-2.504-0.384c-3.05-0.412-6.123-0.629-9.2-0.648c-2.128,0-4.24,0.112-6.336,0.296
	c-0.68,0.064-1.344,0.168-2.016,0.248c-1.416,0.168-2.824,0.352-4.224,0.6c-0.8,0.144-1.6,0.32-2.352,0.48
	c-1.272,0.272-2.544,0.568-3.792,0.904c-0.8,0.216-1.6,0.448-2.4,0.696c-1.224,0.376-2.44,0.8-3.648,1.24
	c-0.8,0.28-1.536,0.56-2.288,0.872c-1.248,0.512-2.48,1.072-3.696,1.656c-0.672,0.32-1.344,0.616-2.008,0.952
	c-1.464,0.752-2.896,1.6-4.304,2.4c-0.384,0.232-0.8,0.432-1.16,0.672c-0.512,0.32-1,0.688-1.504,1.024
	c-1.067-2.373-2.229-4.691-3.488-6.952c-0.448-0.8-0.952-1.552-1.424-2.336c-1-1.664-2.024-3.312-3.136-4.904
	c-0.608-0.88-1.264-1.72-1.912-2.576c-1.072-1.424-2.168-2.824-3.328-4.184c-0.72-0.848-1.464-1.68-2.224-2.496
	c-1.184-1.291-2.405-2.541-3.664-3.752c-0.8-0.8-1.6-1.536-2.4-2.272c-1.344-1.208-2.744-2.352-4.16-3.472
	c-0.8-0.64-1.6-1.304-2.4-1.92c-1.656-1.216-3.376-2.352-5.12-3.448c-0.664-0.416-1.288-0.88-1.96-1.28
	c-2.4-1.408-4.8-2.72-7.28-3.912c0.128-0.152,0.272-0.288,0.4-0.432c0.863-0.98,1.805-1.887,2.816-2.712
	c0.288-0.24,0.576-0.48,0.88-0.712c1.215-0.924,2.517-1.728,3.888-2.4c0.16-0.08,0.336-0.128,0.496-0.2
	c1.257-0.558,2.561-1.005,3.896-1.336c0.392-0.104,0.8-0.192,1.192-0.272c1.533-0.309,3.092-0.467,4.656-0.472
	c8.077,0.004,14.627-6.541,14.631-14.617c0.002-3.882-1.54-7.606-4.287-10.351l-4.688-4.688c-1.229-1.22-2.334-2.56-3.296-4
	c-0.168-0.256-0.272-0.552-0.44-0.8c-0.742-1.202-1.384-2.462-1.92-3.768c-0.048-0.112-0.064-0.232-0.104-0.344
	c-2.357-6.07-2.357-12.802,0-18.872c0.04-0.112,0.056-0.232,0.104-0.336c0.55-1.297,1.206-2.546,1.96-3.736
	c0.16-0.256,0.256-0.544,0.424-0.8C119.181,60.077,127.299,55.709,136,55.704L136,55.704z M141.656,197.528l0.152-0.128
	c2.194-1.683,4.51-3.202,6.928-4.544c0.392-0.216,0.8-0.448,1.168-0.656c2.352-1.24,4.791-2.309,7.296-3.2
	c0.456-0.16,0.912-0.312,1.368-0.464c2.548-0.852,5.155-1.518,7.8-1.992c0.368-0.064,0.744-0.104,1.12-0.16
	c30.341-4.896,58.906,15.731,63.802,46.072c0.49,3.039,0.728,6.113,0.71,9.192h-96v-0.216c0.48-0.64,0.8-1.344,1.264-2.008
	s1.032-1.552,1.488-2.4c0.673-1.218,1.282-2.47,1.824-3.752c0.352-0.8,0.736-1.6,1.032-2.4c0.495-1.436,0.906-2.9,1.232-4.384
	c0.168-0.712,0.408-1.408,0.528-2.128c0.405-2.215,0.616-4.461,0.632-6.712C143.998,210.873,143.212,204.122,141.656,197.528
	L141.656,197.528z M32,105.648c8.077,0.004,14.627-6.541,14.631-14.617c0.002-3.882-1.54-7.606-4.287-10.351l-0.688-0.688
	c-7.797-8.047-7.595-20.891,0.452-28.688c7.868-7.624,20.368-7.624,28.236,0c5.873,5.867,15.391,5.863,21.258-0.01
	c2.813-2.816,4.395-6.633,4.398-10.614v-7.032c0-8.837,7.163-16,16-16c8.837,0,16,7.163,16,16v6.816h-0.136
	c-0.232,0.048-0.456,0.136-0.688,0.184c-2.182,0.472-4.322,1.119-6.4,1.936c-0.696,0.272-1.368,0.592-2.048,0.896
	c-1.654,0.744-3.258,1.597-4.8,2.552c-0.624,0.384-1.248,0.744-1.848,1.168c-19.001,12.916-23.934,38.789-11.019,57.79
	c1.535,2.258,3.288,4.359,5.235,6.274l2.472,2.472c-1.754,0.152-3.497,0.419-5.216,0.8c-0.544,0.112-1.064,0.28-1.6,0.416
	c-1.16,0.296-2.296,0.624-3.416,1.016c-0.6,0.208-1.176,0.448-1.76,0.688c-1.029,0.421-2.04,0.885-3.032,1.392
	c-0.56,0.288-1.12,0.576-1.664,0.888c-1.008,0.584-1.976,1.216-2.936,1.888c-0.456,0.32-0.92,0.608-1.352,0.944
	c-1.255,0.957-2.452,1.988-3.584,3.088c-0.096,0.096-0.2,0.168-0.296,0.264c-1.225,1.226-2.369,2.53-3.424,3.904
	c-0.304,0.4-0.576,0.8-0.864,1.24c-0.528,0.744-1.088,1.456-1.6,2.24h-0.152c-3.194-0.813-6.431-1.446-9.696-1.896
	c-0.8-0.112-1.6-0.216-2.4-0.304c-3.244-0.405-6.507-0.624-9.776-0.656H40c-1.831,0.013-3.66,0.152-5.472,0.416
	c-0.56,0.08-1.112,0.2-1.664,0.296c-1.272,0.232-2.52,0.512-3.76,0.872c-0.592,0.168-1.168,0.336-1.752,0.536
	c-1.297,0.44-2.571,0.948-3.816,1.52c-0.424,0.192-0.856,0.352-1.272,0.56c-0.12,0.056-0.248,0.096-0.36,0.16
	c-3.75-3.004-5.924-7.555-5.904-12.36C16,112.811,23.163,105.648,32,105.648L32,105.648z M16,169.648
	c0.035-13.24,10.76-23.965,24-24h16c8.006,0.013,15.953,1.365,23.512,4H79.6c18.963,6.591,34.326,20.78,42.4,39.16
	c1.151,2.634,2.142,5.335,2.968,8.088v0.04c2.016,6.719,3.037,13.697,3.032,20.712c-0.022,5.781-2.156,11.354-6,15.672
	c-3.157,3.632-7.341,6.22-12,7.424h-0.04c-1.94,0.555-3.943,0.859-5.96,0.904H88C48.254,241.604,16.044,209.394,16,169.648z
	 M464,465.648H16v-160h448V465.648z M464,257.648v32H16v-32H464z"/>
<path d="M376,161.648h16v16h-16V161.648z"/>
<path d="M160,113.648c0-8.837,7.163-16,16-16s16,7.163,16,16v8h16v-8c0-17.673-14.327-32-32-32s-32,14.327-32,32v8h16V113.648z"/>
<path d="M256,129.648v-16c-22.08,0.026-39.974,17.92-40,40h16C232,140.393,242.745,129.648,256,129.648z"/>
<g>
</g>
<g>
</g>
<g>
</g>
<g>
</g>
<g>
</g>
<g>
</g>
<g>
</g>
<g>
</g>
<g>
</g>
<g>
</g>
<g>
</g>
<g>
</g>
<g>
</g>
<g>
</g>
<g>
</g>
</svg>
