<?xml version="1.0"?>
<svg xmlns="http://www.w3.org/2000/svg" xmlns:xlink="http://www.w3.org/1999/xlink" xmlns:svgjs="http://svgjs.com/svgjs" version="1.1" width="512" height="512" x="0" y="0" viewBox="0 0 512 512" style="enable-background:new 0 0 512 512" xml:space="preserve"><g><g xmlns="http://www.w3.org/2000/svg" id="Solid"><path d="m260.52 329.539a24 24 0 0 0 33.941 33.941l90.51-90.51a24 24 0 0 0 0-33.941l-90.51-90.509a24 24 0 0 0 -33.941 0 24 24 0 0 0 0 33.941l49.539 49.539h-262.059a24 24 0 0 0 -24 24 24 24 0 0 0 24 24h262.059z" fill="#ffffff" data-original="#000000" style=""/><path d="m448 24h-224a40 40 0 0 0 -40 40v32a24 24 0 0 0 48 0v-24h208v368h-208v-24a24 24 0 0 0 -48 0v32a40 40 0 0 0 40 40h224a40 40 0 0 0 40-40v-384a40 40 0 0 0 -40-40z" fill="#ffffff" data-original="#000000" style=""/></g></g></svg>
