<?xml version="1.0"?>
<svg xmlns="http://www.w3.org/2000/svg" xmlns:xlink="http://www.w3.org/1999/xlink" xmlns:svgjs="http://svgjs.com/svgjs" version="1.1" width="512" height="512" x="0" y="0" viewBox="0 0 207.5 207.5" style="enable-background:new 0 0 512 512" xml:space="preserve" class=""><g>
<path xmlns="http://www.w3.org/2000/svg" d="M195.374,77.971V25.568c0-2.453-1.779-4.544-4.201-4.936c-2.433-0.396-4.77,1.031-5.544,3.358  c-0.047,0.143-5.711,14.83-40.445,35.231c-29.46,17.304-60.434,18.866-69.84,18.906c-1.848-4.072-5.943-6.917-10.698-6.917H23.068  c-6.479,0-11.75,5.271-11.75,11.75v0.683H9.481C4.253,83.644,0,87.897,0,93.126v21.249c0,5.228,4.253,9.481,9.481,9.481h1.837v0.683  c0,6.479,5.271,11.75,11.75,11.75h7.206l6.312,37.273c0.68,4.016,4.13,6.932,8.204,6.932h13.584c2.454,0,4.771-1.075,6.355-2.95  c1.584-1.875,2.259-4.338,1.849-6.76l-5.842-34.495h3.908c4.755,0,8.85-2.844,10.697-6.916c9.406,0.04,40.38,1.602,69.841,18.905  c34.251,20.118,40.305,34.882,40.471,35.307c0.71,2.027,2.62,3.349,4.717,3.349c0.265,0,0.533-0.021,0.802-0.065  c2.422-0.392,4.201-2.482,4.201-4.936v-52.404c6.825-0.856,12.126-6.683,12.126-13.736V91.708  C207.5,84.655,202.199,78.828,195.374,77.971z M66.396,124.539c0,0.965-0.785,1.75-1.75,1.75h-9.826h-20.32H23.068  c-0.965,0-1.75-0.785-1.75-1.75v-5.683V88.644v-5.683c0-0.965,0.785-1.75,1.75-1.75h41.577c0.965,0,1.75,0.785,1.75,1.75v0.09  v41.397V124.539z" fill="#ffffff" data-original="#000000" style="" class=""/>
<g xmlns="http://www.w3.org/2000/svg">
</g>
<g xmlns="http://www.w3.org/2000/svg">
</g>
<g xmlns="http://www.w3.org/2000/svg">
</g>
<g xmlns="http://www.w3.org/2000/svg">
</g>
<g xmlns="http://www.w3.org/2000/svg">
</g>
<g xmlns="http://www.w3.org/2000/svg">
</g>
<g xmlns="http://www.w3.org/2000/svg">
</g>
<g xmlns="http://www.w3.org/2000/svg">
</g>
<g xmlns="http://www.w3.org/2000/svg">
</g>
<g xmlns="http://www.w3.org/2000/svg">
</g>
<g xmlns="http://www.w3.org/2000/svg">
</g>
<g xmlns="http://www.w3.org/2000/svg">
</g>
<g xmlns="http://www.w3.org/2000/svg">
</g>
<g xmlns="http://www.w3.org/2000/svg">
</g>
<g xmlns="http://www.w3.org/2000/svg">
</g>
</g></svg>
