<?xml version="1.0" encoding="iso-8859-1"?>
<!-- Generator: Adobe Illustrator 19.0.0, SVG Export Plug-In . SVG Version: 6.00 Build 0)  -->
<svg version="1.1" id="Capa_1" xmlns="http://www.w3.org/2000/svg" xmlns:xlink="http://www.w3.org/1999/xlink" x="0px" y="0px"
	 viewBox="0 0 512.001 512.001" style="enable-background:new 0 0 512.001 512.001;" xml:space="preserve">
<path style="fill:#FD6244;" d="M400.89,144.72c-14.046-25.549-37.957-46.08-66.819-46.08c-21.013,0-39.006,10.459-56.355,22.158
	l-0.91-0.1l-40.256,1.26c-18.888-12.839-38.856-24.878-62.604-23.158c-25.828,1.86-48.845,19.568-62.994,46.066
	c-37.297,17.448-62.794,69.274-52.285,127.268c12.559,69.314,45.816,216.27,104.78,227.729c29.847,5.799,45.986-0.66,62.424-16.868
	l0.01-0.01c8.829,7.309,18.888,10.999,30.387,10.999c14.029,0,25.908-6.169,36.027-17.728
	c95.121,98.811,145.436-112.989,161.575-202.061c1.66-9.169,2.42-18.218,2.37-27.037C456.015,199.892,432.638,159.533,400.89,144.72
	z"/>
<path style="fill:#85E374;" d="M356.26,9.999c-63.464,0-115.579,49.525-119.709,111.96c-0.448,6.24-0.218,9.739-0.28,25.478v0.01
	h39.996v-0.01c0.116-15.293-0.32-19.452,0.54-26.737c4.61-39.756,38.486-70.703,79.453-70.703c11.049,0,19.998-8.949,19.998-19.998
	S367.309,9.999,356.26,9.999z"/>
<path d="M336.012,325.969c-5.519,0-9.999,4.48-9.999,9.999s4.48,9.999,9.999,9.999s9.999-4.48,9.999-9.999
	S341.531,325.969,336.012,325.969z"/>
<path d="M465.989,247.052c0.363-48.095-22.562-91.662-57.407-109.749c-16.19-28.457-41.974-46.502-69.516-48.476
	c-0.039-0.003-0.078-0.005-0.118-0.008c-15.786-1.107-30.331,2.967-44.464,10.072c-0.544,0.274-1.076,0.56-1.614,0.84
	c11.343-23.689,35.532-39.736,63.139-39.736c16.54,0,29.997-13.457,29.997-29.997S372.55,0,356.01,0
	c-62.666,0-115.829,44.958-127.557,104.955c-16.427-9.951-34.392-17.651-55.475-16.128c-27.546,1.985-53.336,20.036-69.531,48.494
	c-19.508,10.13-35.762,28.452-45.986,51.992c-11.177,25.736-14.249,54.992-8.883,84.605
	c12.22,67.444,45.577,222.713,112.712,235.761c25.809,5.017,45.538,2.56,65.124-13.89c8.919,5.434,18.839,8.194,29.604,8.194
	c13.379,0,25.48-4.619,36.098-13.736c17.996,16.273,39.221,26.472,62.255,19.509c64.442-19.481,97.074-167.472,109.088-233.782
	c1.721-9.504,2.57-19.15,2.529-28.666c0-0.021,0.001-0.042,0.001-0.063c0-0.022-0.001-0.044,0-0.066c0-0.024,0.001-0.047,0-0.071
	C465.99,247.09,465.989,247.071,465.989,247.052z M337.624,108.774c0.036,0.002,0.071,0.005,0.107,0.007
	c14.361,1.056,28.251,8.202,39.707,19.956c-1.201-0.059-2.413-0.099-3.63-0.099c-22.484,0-41.265,10.188-58.485,21.555
	c-8.73-4.82-18.662-8.541-29.307-10.979v-9.226c0-0.976,0.027-1.948,0.067-2.918C301.892,116.614,318.645,107.404,337.624,108.774z
	 M246.02,129.988c0-60.84,49.674-109.99,109.99-109.99c5.513,0,9.999,4.486,9.999,9.999s-4.486,9.999-9.999,9.999
	c-49.556,0-89.992,40.073-89.992,89.992v6.246c-6.647-0.486-13.356-0.486-19.998,0V129.988z M174.419,108.773
	c18.835-1.358,35.296,7.532,51.652,18.36c-0.021,0.949-0.049,1.896-0.049,2.854v9.227c-10.651,2.44-20.583,6.162-29.31,10.98
	c-18.245-12.04-38.143-22.666-62.097-21.461C146.097,116.959,160.024,109.81,174.419,108.773z M165.105,490.048
	c-37.022-7.194-73.227-89.324-96.849-219.696c-4.592-25.342-1.912-51.292,7.548-73.072c10.877-25.045,31.808-46.565,58.618-48.51
	c16.224-1.164,30.686,5.264,44.829,13.986c-13.702,12.79-25.68,32.973-23.671,64.01c4.939,76.288,11.419,130.822,20.392,171.62
	c8.808,40.047,20.065,67.237,35.003,84.222C199.855,491.111,187.406,494.381,165.105,490.048z M443.67,273.021
	c-22.74,125.137-58.271,206.464-95.085,217.593c-13.095,3.958-27.585-1.183-43.144-15.278
	c14.491-20.552,25.777-52.743,34.376-97.955c1.031-5.425-2.53-10.659-7.955-11.691c-5.437-1.029-10.659,2.531-11.691,7.955
	c-9.042,47.551-20.702,78.959-35.647,96.022c-8.433,9.633-17.756,14.316-28.503,14.316c-9.083,0-16.937-2.847-24.018-8.707
	c-37.513-31.004-49.595-143.677-56.467-249.805c-2.552-39.423,24.1-62.06,62.081-68.156c12.077-1.953,24.716-1.955,36.817,0.002
	c37.948,6.09,64.631,28.576,62.068,68.152c-1.71,26.362-3.538,49.193-5.591,69.8c-0.547,5.495,3.465,10.394,8.959,10.941
	c5.497,0.534,10.393-3.466,10.941-8.959c2.075-20.838,3.923-43.894,5.647-70.489c2.008-31.032-9.966-51.213-23.662-64.001
	c15.811-9.714,31.669-16.389,49.969-13.35c16.065,2.809,31.153,13.29,42.788,29.821c13.048,18.536,20.304,42.65,20.436,67.913
	C445.84,263.524,443.342,269.322,443.67,273.021z"/>
<g>
</g>
<g>
</g>
<g>
</g>
<g>
</g>
<g>
</g>
<g>
</g>
<g>
</g>
<g>
</g>
<g>
</g>
<g>
</g>
<g>
</g>
<g>
</g>
<g>
</g>
<g>
</g>
<g>
</g>
</svg>
