<svg id="Layer_5" enable-background="new 0 0 64 64" height="512" viewBox="0 0 64 64" width="512" xmlns="http://www.w3.org/2000/svg"><g><g><g fill="#fcd770"><path d="m62 35.95v2.1c0 3.54-1.48 6.9-4.05 9.32l-3.89-.59c1.25-2.06 1.94-4.46 1.94-6.94v-3.68c0-2.07-.48-4.08-1.36-5.88-.65-1.34-1.54-2.56-2.63-3.61l.01-.01c.56-1.02 1.63-1.66 2.82-1.66.69 0 1.36.22 1.92.63 3.3 2.44 5.24 6.26 5.24 10.32z"/><path d="m50.84 25.64c.42.32.82.66 1.17 1.03 1.09 1.05 1.98 2.27 2.63 3.61.88 1.8 1.36 3.81 1.36 5.88v3.68c0 2.48-.69 4.88-1.94 6.94l-9.38-1.44v-.01c-.45-1.73-.68-3.5-.68-5.3v-4.06c0-1.39.14-2.78.41-4.14.49.11 1.02.17 1.59.17 2.21 0 4-.9 4-2 0-.71-.74-1.33-1.85-1.68l.3-3.28c.16-.03.33-.04.5-.04.68 0 1.35.23 1.89.64z"/><path d="m38.77 25.43c.53.3.96.74 1.25 1.29v.01c-2.55 2.45-4.02 5.85-4.02 9.43v3.68c0 1.47.25 2.91.72 4.27l-5.61-.86c-.72-1.62-1.11-3.38-1.11-5.2v-2.1c0-.75.07-1.5.2-2.23.04-.21.08-.42.13-.63.68-2.95 2.4-5.6 4.91-7.46.56-.41 1.23-.63 1.92-.63.58 0 1.13.15 1.61.43z"/><path d="m43.55 25.02.3 3.3c-1.11.35-1.85.97-1.85 1.68 0 .82.99 1.52 2.41 1.83-.27 1.36-.41 2.75-.41 4.14v4.06c0 1.8.23 3.57.68 5.3l-6.28-.96-1.68-.26c-.47-1.36-.72-2.8-.72-4.27v-3.68c0-3.58 1.47-6.98 4.02-9.43v-.01c.4-.39.82-.75 1.27-1.08.56-.41 1.24-.64 1.94-.64.11 0 .21.01.31.02z"/></g><path d="m50 30c0 1.1-1.79 2-4 2-.57 0-1.1-.06-1.59-.17-1.42-.31-2.41-1.01-2.41-1.83 0-.71.74-1.33 1.85-1.68l-.3-3.3-.54-5.89c-.01-.09-.01-.17-.01-.26 0-1.59 1.28-2.87 2.87-2.87h.26c.79 0 1.51.32 2.03.84s.84 1.24.84 2.03c0 .09 0 .17-.01.26l-.54 5.91-.3 3.28c1.11.35 1.85.97 1.85 1.68z" fill="#cf9e76"/><path d="m23.91 6.13c.35-.08.72-.13 1.09-.13 1.63 0 3.09.78 4 2l-.02.1c-.32-.07-.64-.1-.98-.1-2.07 0-3.84 1.25-4.6 3.04-.13-.01-.26-.04-.4-.04-2.51 0-4.57 1.86-4.93 4.27-2.92.84-5.07 3.53-5.07 6.73 0 2.73 1.56 5.08 3.84 6.24-.53.79-.84 1.74-.84 2.76 0 1.78.94 3.33 2.34 4.22-.21.55-.34 1.15-.34 1.78 0 2.76 2.24 5.03 5 5.03-.26-.02-.51-.03-.76-.03h-.24c-1.95 0-3.77.56-5.31 1.53l-2.69-7.53c-2.76 0-5-2.24-5-5 0-.63.13-1.23.34-1.78-1.4-.89-2.34-2.44-2.34-4.22 0-1.02.31-1.97.84-2.76-2.28-1.16-3.84-3.51-3.84-6.24 0-3.2 2.15-5.89 5.07-6.73.36-2.41 2.42-4.27 4.93-4.27.14 0 .27.03.4.04.76-1.79 2.53-3.04 4.6-3.04 2.46 0 4.5 1.78 4.91 4.13z" fill="#8cc152"/><path d="m37.56 20.5c.89.9 1.44 2.14 1.44 3.5 0 .47-.07.93-.19 1.36l-.04.07c-.48-.28-1.03-.43-1.61-.43-.69 0-1.36.22-1.92.63-2.51 1.86-4.23 4.51-4.91 7.46-.05.21-.09.42-.13.63-.13.73-.2 1.48-.2 2.23v2.1c0 1.82.39 3.58 1.11 5.2l-7.35-1.13c-.26-.04-.51-.07-.76-.09-2.76 0-5-2.27-5-5.03 0-.63.13-1.23.34-1.78-1.4-.89-2.34-2.44-2.34-4.22 0-1.02.31-1.97.84-2.76-2.28-1.16-3.84-3.51-3.84-6.24 0-3.2 2.15-5.89 5.07-6.73.36-2.41 2.42-4.27 4.93-4.27.14 0 .27.03.4.04.76-1.79 2.53-3.04 4.6-3.04.34 0 .66.03.98.1 2.01.4 3.58 2 3.93 4.03.35-.08.72-.13 1.09-.13 2.76 0 5 2.24 5 5 0 1.36-.55 2.6-1.44 3.5z" fill="#b4dd7f"/><path d="m6.8 50h5.4c-.13.64-.2 1.31-.2 2s.07 1.36.2 2h-5.4-2.8c-.55 0-1.05-.22-1.41-.59-.37-.36-.59-.86-.59-1.41 0-1.1.9-2 2-2z" fill="#b4dd7f"/><path d="m7.19 46.04 5.95 1.33c-.43.82-.75 1.7-.94 2.63h-5.4c-.99 0-1.8-.81-1.8-1.8v-.4c0-.99.81-1.8 1.8-1.8.13 0 .26.01.39.04z" fill="#b4dd7f"/><path d="m13.14 56.63-5.95 1.33c-.13.03-.26.04-.39.04-.99 0-1.8-.81-1.8-1.8v-.4c0-.99.81-1.8 1.8-1.8h5.4c.19.93.51 1.81.94 2.63z" fill="#b4dd7f"/><path d="m60.88 48.96c-.71-.82-1.7-1.4-2.83-1.57l-.1-.02-3.89-.59-9.38-1.44v-.01l-6.28-.96-1.68-.26-5.61-.86-7.35-1.13c-.26-.04-.51-.07-.76-.09-.26-.02-.51-.03-.76-.03h-.24c-1.95 0-3.77.56-5.31 1.53-1.5.94-2.73 2.27-3.55 3.84-.43.82-.75 1.7-.94 2.63-.13.64-.2 1.31-.2 2s.07 1.36.2 2c.19.93.51 1.81.94 2.63.47.9 1.08 1.73 1.79 2.44 1.81 1.81 4.31 2.93 7.07 2.93h.24c.5 0 1.01-.04 1.52-.12l14.64-2.25 19.65-3.02c2.27-.35 3.95-2.31 3.95-4.61 0-1.15-.42-2.22-1.12-3.04z" fill="#ff826e"/></g><g><path d="m63 35.949c0-4.354-2.111-8.512-5.647-11.122-.721-.534-1.615-.827-2.516-.827-1.128 0-2.185.451-2.961 1.218-.145-.121-.277-.254-.427-.369-.555-.424-1.221-.676-1.905-.78l.441-4.849c.01-.116.015-.233.015-.35 0-2.134-1.736-3.87-3.87-3.87h-.26c-2.134 0-3.87 1.736-3.87 3.87 0 .117.005.234.016.351l.443 4.87c-.634.12-1.247.365-1.765.751-.179.134-.338.288-.51.429-.089-.092-.183-.178-.28-.261.057-.333.096-.67.096-1.01 0-1.27-.396-2.485-1.13-3.5.734-1.015 1.13-2.229 1.13-3.5 0-3.424-2.897-6.199-6.349-5.989-.642-1.84-2.139-3.227-3.979-3.762-1.218-1.519-3.054-2.362-5.021-2.238-.828-2.373-3.07-4.011-5.651-4.011-2.165 0-4.136 1.158-5.198 3.003-2.648.089-4.937 1.958-5.593 4.504-3.096 1.155-5.209 4.152-5.209 7.493 0 2.679 1.318 5.128 3.499 6.608-.329.751-.499 1.563-.499 2.392 0 1.8.8 3.473 2.173 4.606-.115.464-.173.931-.173 1.394 0 3.064 2.31 5.6 5.28 5.957l2.212 6.195c-1.133.835-2.098 1.88-2.841 3.08l-5.239-1.164c-.199-.046-.404-.068-.61-.068-1.545 0-2.802 1.257-2.802 2.802v.396c0 .28.054.546.131.802h-.131c-1.654 0-3 1.346-3 3s1.346 3 3 3h.131c-.077.256-.131.522-.131.802v.396c0 1.545 1.257 2.802 2.802 2.802.206 0 .411-.022.608-.067l5.241-1.165c1.941 3.134 5.4 5.232 9.349 5.232h.235c.556 0 1.119-.043 1.672-.128l34.291-5.275c2.782-.429 4.802-2.782 4.802-5.597 0-2.251-1.303-4.188-3.243-5.101 2.072-2.475 3.243-5.615 3.243-8.848zm-12.767-9.511c2.985 2.282 4.767 5.917 4.767 9.726v3.673c0 2.05-.511 4.057-1.474 5.848l-8.019-1.234c-.33-1.451-.507-2.933-.507-4.421v-4.06c0-1.008.101-2.015.254-3.013.245.021.489.043.746.043 2.851 0 5-1.29 5-3 0-.944-.653-1.782-1.784-2.332l.147-1.618c.312.063.612.189.87.388zm-4.363-9.438h.261c1.031 0 1.87.839 1.87 1.87 0 .057-.002.114-.008.17l-.908 9.987.763.245c.876.28 1.152.649 1.152.728 0 .249-1.064 1-3 1s-3-.751-3-1c0-.079.276-.448 1.152-.729l.763-.245-.908-9.986c-.005-.057-.007-.114-.007-.17 0-1.031.839-1.87 1.87-1.87zm-3.23 9.083.144 1.585c-1.131.55-1.784 1.388-1.784 2.332 0 1.102.899 2.023 2.296 2.543-.179 1.135-.296 2.281-.296 3.427v4.06c0 1.374.132 2.746.388 4.095l-5.895-.907c-.321-1.099-.493-2.232-.493-3.382v-3.673c0-3.803 1.828-7.437 4.89-9.719.223-.166.48-.288.75-.361zm-10.807 16.264c-.543-1.374-.833-2.813-.833-4.296v-2.103c0-3.722 1.808-7.278 4.835-9.514.38-.28.852-.434 1.328-.434.604 0 1.16.243 1.567.65-2.358 2.584-3.73 5.978-3.73 9.514v3.673c0 1.031.123 2.051.346 3.051zm.094-30.046.182 1.029 1.02-.227c.31-.069.595-.103.871-.103 2.206 0 4 1.794 4 4 0 1.051-.408 2.045-1.148 2.799l-.688.701.688.701c.74.754 1.148 1.748 1.148 2.799 0 .03-.006.06-.006.091-.271-.054-.547-.091-.831-.091-.901 0-1.795.293-2.516.826-1.82 1.343-3.253 3.1-4.225 5.079-.379-1.18-.777-2.31-1.187-3.383.925-4.886 4.356-7.714 4.391-7.743l-.626-.779-.625-.781c-.139.111-2.844 2.32-4.363 6.305-2.081-4.778-4.045-7.869-4.171-8.065l-1.683 1.082c.027.041 1.552 2.44 3.327 6.259-2.991-1.126-6.39-.815-6.585-.795l.199 1.99c1.504-.151 5.764-.078 7.754 1.953.701 1.723 1.392 3.612 2.002 5.636-3.04-1.559-6.667-1.584-6.855-1.584v2c.047 0 4.499.03 7.134 2.125-.082.602-.134 1.21-.134 1.824v2.103c0 1.351.208 2.672.594 3.952l-5.687-.875c-.3-.046-.603-.077-.907-.099-2.206 0-4-1.808-4-4.029 0-.466.093-.944.275-1.423l.292-.765-.693-.438c-1.173-.742-1.874-2.003-1.874-3.375 0-.787.231-1.55.668-2.208l.623-.936-1.002-.509c-2.029-1.032-3.289-3.08-3.289-5.347 0-2.661 1.788-5.031 4.349-5.764l.621-.178.093-.639c.285-1.949 1.978-3.419 3.937-3.419.037 0 .073.008.109.013.07.01.141.019.212.024l.717.058.282-.662c.631-1.478 2.075-2.433 3.68-2.433 1.938 0 3.589 1.388 3.927 3.301zm-17.222 22.699h-.705c-2.206 0-4-1.794-4-4 0-.467.093-.945.275-1.422l.293-.765-.693-.438c-1.174-.742-1.875-2.003-1.875-3.375 0-.787.231-1.55.668-2.208l.623-.936-1.002-.509c-2.029-1.032-3.289-3.08-3.289-5.347 0-2.661 1.788-5.031 4.348-5.764l.621-.178.093-.639c.286-1.949 1.979-3.419 3.938-3.419.038 0 .075.008.112.013.068.009.136.018.206.024l.72.06.283-.665c.63-1.477 2.074-2.432 3.679-2.432 1.938 0 3.589 1.388 3.927 3.301l.182 1.029 1.02-.227c.31-.069.595-.103.871-.103.46 0 .897.101 1.315.247-1.47.43-2.736 1.406-3.513 2.756-2.648.089-4.937 1.958-5.593 4.504-3.096 1.155-5.209 4.152-5.209 7.493 0 2.679 1.318 5.128 3.499 6.608-.329.751-.499 1.563-.499 2.392 0 1.8.8 3.473 2.173 4.607-.115.464-.173.93-.173 1.393 0 1.757.756 3.336 1.953 4.438-.594.172-1.165.395-1.713.66zm-8.705 13.198v-.396c0-.502.486-.889.977-.783l4.759 1.058c-.116.302-.22.609-.309.923h-4.625c-.442 0-.802-.36-.802-.802zm-3 3.802c0-.551.449-1 1-1h2.802 4.248c-.029.33-.05.662-.05 1s.021.67.051 1h-4.249-2.802c-.551 0-1-.449-1-1zm3.975 4.981c-.474.102-.975-.282-.975-.783v-.396c0-.442.36-.802.802-.802h4.624c.089.314.194.621.309.923zm54.025-4.981c0 1.821-1.306 3.343-3.105 3.62l-34.29 5.275c-.454.07-.915.105-1.37.105h-.235c-4.962 0-9-4.038-9-9s4.038-9 9-9h.235c.455 0 .916.035 1.369.104l34.29 5.275c1.8.278 3.106 1.8 3.106 3.621zm0-13.949c0 3.076-1.245 6.052-3.411 8.258l-1.987-.306c.913-1.918 1.398-4.021 1.398-6.167v-3.673c0-3.554-1.354-6.965-3.68-9.553.404-.381.94-.61 1.517-.61.477 0 .948.154 1.328.436 3.027 2.234 4.835 5.791 4.835 9.513z"/><path d="m21 47h2v10h-2z"/><path d="m29 47h2v10h-2z"/><path d="m37 47h2v10h-2z"/><path d="m45 49h2v6h-2z"/><path d="m53 50h2v4h-2z"/></g></g></svg>